<svg xmlns="http://www.w3.org/2000/svg" viewBox="0 0 500 500" class="circuit-track-svg">
  <path d="M 95,380 L 95,310 L 98,295 L 108,282 L 122,274 L 138,270 L 158,268 L 178,268 L 195,265 L 208,258 L 218,248 L 224,236 L 226,222 L 224,208 L 218,196 L 210,187 L 198,180 L 185,176 L 170,174 L 155,172 L 142,166 L 132,156 L 127,143 L 126,129 L 130,115 L 139,103 L 152,95 L 168,91 L 185,90 L 240,90 L 295,91 L 330,94 L 355,100 L 372,110 L 382,124 L 386,140 L 384,156 L 376,170 L 363,181 L 346,188 L 328,192 L 310,193 L 295,196 L 282,204 L 273,215 L 268,228 L 267,242 L 270,255 L 277,266 L 288,275 L 302,281 L 318,284 L 334,285 L 350,289 L 363,297 L 372,308 L 376,322 L 374,337 L 367,350 L 355,360 L 340,366 L 322,369 L 304,369 L 278,368 L 254,367 L 232,368 L 212,372 L 194,380 L 178,392 L 165,407 L 157,423 L 154,440 L 157,453 L 165,462 L 144,462 L 128,458 L 114,448 L 104,434 L 97,417 L 95,400 Z"
        stroke="currentColor" stroke-width="4.5"
        fill="none" stroke-linecap="round" stroke-linejoin="round"/>
</svg>
